<svg width="40" height="40" viewBox="0 0 40 40" fill="none" xmlns="http://www.w3.org/2000/svg">
<g clip-path="url(#clip0_78_5)">
<path d="M16.6406 28.3594L31.6406 13.3594L29.2969 10.9375L16.6406 23.5938L10.7031 17.6562L8.35938 20L16.6406 28.3594ZM31.6406 5C32.5781 5 33.3594 5.33854 33.9844 6.01562C34.6615 6.64062 35 7.42188 35 8.35938V31.6406C35 32.5781 34.6615 33.3854 33.9844 34.0625C33.3594 34.6875 32.5781 35 31.6406 35H8.35938C7.42188 35 6.61458 34.6875 5.9375 34.0625C5.3125 33.3854 5 32.5781 5 31.6406V8.35938C5 7.42188 5.3125 6.64062 5.9375 6.01562C6.61458 5.33854 7.42188 5 8.35938 5H31.6406Z" fill="#79747E"/>
</g>
<defs>
<clipPath id="clip0_78_5">
<rect width="40" height="40" fill="white"/>
</clipPath>
</defs>
</svg>
