<svg width="40" height="40" viewBox="0 0 40 40" fill="none" xmlns="http://www.w3.org/2000/svg">
<path d="M20 35C17.95 35 16.0125 34.6063 14.1875 33.8188C12.3625 33.0313 10.7688 31.9563 9.40625 30.5938C8.04375 29.2313 6.96875 27.6375 6.18125 25.8125C5.39375 23.9875 5 22.05 5 20C5 17.925 5.39375 15.9813 6.18125 14.1688C6.96875 12.3563 8.04375 10.7688 9.40625 9.40625C10.7688 8.04375 12.3625 6.96875 14.1875 6.18125C16.0125 5.39375 17.95 5 20 5C20.425 5 20.7813 5.14375 21.0688 5.43125C21.3563 5.71875 21.5 6.075 21.5 6.5C21.5 6.925 21.3563 7.28125 21.0688 7.56875C20.7813 7.85625 20.425 8 20 8C16.675 8 13.8438 9.16875 11.5063 11.5063C9.16875 13.8438 8 16.675 8 20C8 23.325 9.16875 26.1563 11.5063 28.4938C13.8438 30.8313 16.675 32 20 32C23.325 32 26.1563 30.8313 28.4938 28.4938C30.8313 26.1563 32 23.325 32 20C32 19.575 32.1438 19.2188 32.4313 18.9313C32.7188 18.6438 33.075 18.5 33.5 18.5C33.925 18.5 34.2813 18.6438 34.5688 18.9313C34.8563 19.2188 35 19.575 35 20C35 22.05 34.6063 23.9875 33.8188 25.8125C33.0313 27.6375 31.9563 29.2313 30.5938 30.5938C29.2313 31.9563 27.6438 33.0313 25.8313 33.8188C24.0188 34.6063 22.075 35 20 35Z" fill="#CAC4D0"/>
</svg>
