<svg width="40" height="40" viewBox="0 0 40 40" fill="none" xmlns="http://www.w3.org/2000/svg">
<rect x="6.71429" y="6.71423" width="25.7143" height="25.7143" rx="2.57143" fill="#615D66"/>
<rect x="5" y="5" width="25.7143" height="25.7143" rx="2.57143" fill="#79747E"/>
<rect x="7.57141" y="7.57141" width="20.5714" height="13.7143" rx="2.57143" fill="white"/>
<rect x="7.57141" y="26.4286" width="14.5714" height="1.71429" rx="0.857143" fill="white"/>
<rect x="7.57141" y="23" width="11.1429" height="1.71429" rx="0.857143" fill="white"/>
<path d="M32.2081 34.9999L28.0204 30.8122L26.7959 34.5102L23.8571 24.7142L33.653 27.653L29.9551 28.8775L34.1428 33.0653L32.2081 34.9999Z" fill="#79747E"/>
<path d="M28.0204 30.8122L29.6 32.4285C31.0894 32.5484 31.7 31.9142 32.1285 31.0571L29.9551 28.8775L32.4285 28.0571V27.2857L23.8571 24.7142L26.1714 32.4285H27.4571L28.0204 30.8122Z" fill="white"/>
</svg>
