<svg width="40" height="40" viewBox="0 0 40 40" fill="none" xmlns="http://www.w3.org/2000/svg">
<path d="M9.70831 24.375C8.42359 24.375 7.33158 23.9983 6.43227 23.2448C5.53297 22.4913 5.08331 21.5764 5.08331 20.5C5.08331 19.4236 5.53297 18.5087 6.43227 17.7552C7.33158 17.0017 8.42359 16.625 9.70831 16.625H31.2916C32.5764 16.625 33.6684 17.0017 34.5677 17.7552C35.467 18.5087 35.9166 19.4236 35.9166 20.5C35.9166 21.5764 35.467 22.4913 34.5677 23.2448C33.6684 23.9983 32.5764 24.375 31.2916 24.375H9.70831ZM23.5833 21.7917H31.2916C31.7285 21.7917 32.0946 21.6679 32.3901 21.4203C32.6856 21.1727 32.8333 20.866 32.8333 20.5C32.8333 20.134 32.6856 19.8273 32.3901 19.5797C32.0946 19.3321 31.7285 19.2083 31.2916 19.2083H23.5833V21.7917Z" fill="#79747E"/>
</svg>
