<svg width="40" height="40" viewBox="0 0 40 40" fill="none" xmlns="http://www.w3.org/2000/svg">
<path d="M9.70834 24.375C8.42362 24.375 7.33161 23.9983 6.4323 23.2448C5.533 22.4913 5.08334 21.5764 5.08334 20.5C5.08334 19.4236 5.533 18.5087 6.4323 17.7552C7.33161 17.0017 8.42362 16.625 9.70834 16.625H31.2917C32.5764 16.625 33.6684 17.0017 34.5677 17.7552C35.467 18.5087 35.9167 19.4236 35.9167 20.5C35.9167 21.5764 35.467 22.4913 34.5677 23.2448C33.6684 23.9983 32.5764 24.375 31.2917 24.375H9.70834ZM23.5833 21.7917H31.2917C31.7285 21.7917 32.0946 21.6679 32.3901 21.4203C32.6856 21.1727 32.8333 20.866 32.8333 20.5C32.8333 20.134 32.6856 19.8273 32.3901 19.5797C32.0946 19.3321 31.7285 19.2083 31.2917 19.2083H23.5833V21.7917Z" fill="#CAC4D0"/>
</svg>
