<svg width="40" height="40" viewBox="0 0 40 40" fill="none" xmlns="http://www.w3.org/2000/svg">
<path d="M27.5234 12.4766C29.5859 12.4766 31.3438 13.2266 32.7969 14.7266C34.25 16.1797 34.9766 17.9375 34.9766 20C34.9766 22.0625 34.25 23.8438 32.7969 25.3438C31.3438 26.7969 29.5859 27.5234 27.5234 27.5234H21.4766V24.6406H27.5234C28.7891 24.6406 29.8672 24.1953 30.7578 23.3047C31.6953 22.3672 32.1641 21.2656 32.1641 20C32.1641 18.7344 31.6953 17.6562 30.7578 16.7656C29.8672 15.8281 28.7891 15.3594 27.5234 15.3594H21.4766V12.4766H27.5234ZM14.0234 21.4766V18.5234H25.9766V21.4766H14.0234ZM9.17188 16.7656C8.28125 17.6562 7.83594 18.7344 7.83594 20C7.83594 21.2656 8.28125 22.3672 9.17188 23.3047C10.1094 24.1953 11.2109 24.6406 12.4766 24.6406H18.5234V27.5234H12.4766C10.4141 27.5234 8.65625 26.7969 7.20312 25.3438C5.75 23.8438 5.02344 22.0625 5.02344 20C5.02344 17.9375 5.75 16.1797 7.20312 14.7266C8.65625 13.2266 10.4141 12.4766 12.4766 12.4766H18.5234V15.3594H12.4766C11.2109 15.3594 10.1094 15.8281 9.17188 16.7656Z" fill="#79747E"/>
</svg>
