<svg width="40" height="40" viewBox="0 0 40 40" fill="none" xmlns="http://www.w3.org/2000/svg">
<rect x="6" y="5" width="29" height="30" rx="3" fill="#79747E"/>
<path d="M16 12H31" stroke="white" stroke-width="4" stroke-linecap="round"/>
<path d="M10.5 9.91992C10.7865 9.91992 11.0566 9.97526 11.3105 10.0859C11.5645 10.1901 11.7858 10.3366 11.9746 10.5254C12.1634 10.7142 12.3099 10.9355 12.4141 11.1895C12.5247 11.4434 12.5801 11.7135 12.5801 12C12.5801 12.2865 12.5247 12.5566 12.4141 12.8105C12.3099 13.0645 12.1634 13.2858 11.9746 13.4746C11.7858 13.6634 11.5645 13.8132 11.3105 13.9238C11.0566 14.028 10.7865 14.0801 10.5 14.0801C10.2135 14.0801 9.94336 14.028 9.68945 13.9238C9.43555 13.8132 9.21419 13.6634 9.02539 13.4746C8.83659 13.2858 8.68685 13.0645 8.57617 12.8105C8.47201 12.5566 8.41992 12.2865 8.41992 12C8.41992 11.7135 8.47201 11.4434 8.57617 11.1895C8.68685 10.9355 8.83659 10.7142 9.02539 10.5254C9.21419 10.3366 9.43555 10.1901 9.68945 10.0859C9.94336 9.97526 10.2135 9.91992 10.5 9.91992Z" fill="white"/>
<path d="M16 20H31" stroke="#B5B1B9" stroke-width="4" stroke-linecap="round"/>
<path d="M10.5 17.9199C10.7865 17.9199 11.0566 17.9753 11.3105 18.0859C11.5645 18.1901 11.7858 18.3366 11.9746 18.5254C12.1634 18.7142 12.3099 18.9355 12.4141 19.1895C12.5247 19.4434 12.5801 19.7135 12.5801 20C12.5801 20.2865 12.5247 20.5566 12.4141 20.8105C12.3099 21.0645 12.1634 21.2858 11.9746 21.4746C11.7858 21.6634 11.5645 21.8132 11.3105 21.9238C11.0566 22.028 10.7865 22.0801 10.5 22.0801C10.2135 22.0801 9.94336 22.028 9.68945 21.9238C9.43555 21.8132 9.21419 21.6634 9.02539 21.4746C8.83659 21.2858 8.68685 21.0645 8.57617 20.8105C8.47201 20.5566 8.41992 20.2865 8.41992 20C8.41992 19.7135 8.47201 19.4434 8.57617 19.1895C8.68685 18.9355 8.83659 18.7142 9.02539 18.5254C9.21419 18.3366 9.43555 18.1901 9.68945 18.0859C9.94336 17.9753 10.2135 17.9199 10.5 17.9199Z" fill="#B5B1B9"/>
<path d="M16 28H31" stroke="#B5B1B9" stroke-width="4" stroke-linecap="round"/>
<path d="M10.5 25.9199C10.7865 25.9199 11.0566 25.9753 11.3105 26.0859C11.5645 26.1901 11.7858 26.3366 11.9746 26.5254C12.1634 26.7142 12.3099 26.9355 12.4141 27.1895C12.5247 27.4434 12.5801 27.7135 12.5801 28C12.5801 28.2865 12.5247 28.5566 12.4141 28.8105C12.3099 29.0645 12.1634 29.2858 11.9746 29.4746C11.7858 29.6634 11.5645 29.8132 11.3105 29.9238C11.0566 30.028 10.7865 30.0801 10.5 30.0801C10.2135 30.0801 9.94336 30.028 9.68945 29.9238C9.43555 29.8132 9.21419 29.6634 9.02539 29.4746C8.83659 29.2858 8.68685 29.0645 8.57617 28.8105C8.47201 28.5566 8.41992 28.2865 8.41992 28C8.41992 27.7135 8.47201 27.4434 8.57617 27.1895C8.68685 26.9355 8.83659 26.7142 9.02539 26.5254C9.21419 26.3366 9.43555 26.1901 9.68945 26.0859C9.94336 25.9753 10.2135 25.9199 10.5 25.9199Z" fill="#B5B1B9"/>
</svg>
