<svg width="40" height="40" viewBox="0 0 40 40" fill="none" xmlns="http://www.w3.org/2000/svg">
<path d="M31.0586 25.0469C31.9987 25.3932 32.7656 25.9622 33.3594 26.7539C33.9531 27.5456 34.25 28.4609 34.25 29.5C34.25 30.3906 34.0273 31.207 33.582 31.9492C33.1862 32.6419 32.6172 33.2109 31.875 33.6562C31.1823 34.0521 30.3906 34.25 29.5 34.25C28.6094 34.25 27.793 34.0521 27.0508 33.6562C26.3581 33.2109 25.7891 32.6419 25.3438 31.9492C24.9479 31.207 24.75 30.3906 24.75 29.5C24.75 28.4609 25.0469 27.5456 25.6406 26.7539C26.2344 25.9128 27.0013 25.3438 27.9414 25.0469V12.0586C27.9414 11.2174 27.6198 10.5 26.9766 9.90625C26.3828 9.26302 25.6406 8.94141 24.75 8.94141C23.8594 8.94141 23.0924 9.26302 22.4492 9.90625C21.8555 10.5 21.5586 11.2174 21.5586 12.0586V27.9414C21.5586 29.0794 21.2617 30.1432 20.668 31.1328C20.1237 32.0729 19.3815 32.8398 18.4414 33.4336C17.5013 33.9779 16.4375 34.25 15.25 34.25C14.0625 34.25 12.9987 33.9779 12.0586 33.4336C11.1185 32.8398 10.3516 32.0729 9.75781 31.1328C9.21354 30.1432 8.94141 29.0794 8.94141 27.9414V14.9531C8.0013 14.6068 7.23438 14.0378 6.64062 13.2461C6.04688 12.4544 5.75 11.5391 5.75 10.5C5.75 9.60938 5.94792 8.81771 6.34375 8.125C6.78906 7.38281 7.35807 6.8138 8.05078 6.41797C8.79297 5.97266 9.60938 5.75 10.5 5.75C11.3906 5.75 12.1823 5.97266 12.875 6.41797C13.6172 6.8138 14.1862 7.38281 14.582 8.125C15.0273 8.81771 15.25 9.60938 15.25 10.5C15.25 11.5391 14.9531 12.4544 14.3594 13.2461C13.7656 14.0378 12.9987 14.6068 12.0586 14.9531V27.9414C12.0586 28.7826 12.3555 29.5247 12.9492 30.168C13.5924 30.7617 14.3594 31.0586 15.25 31.0586C16.1406 31.0586 16.8828 30.7617 17.4766 30.168C18.1198 29.5247 18.4414 28.7826 18.4414 27.9414V12.0586C18.4414 10.9206 18.7135 9.88151 19.2578 8.94141C19.8516 7.95182 20.6185 7.1849 21.5586 6.64062C22.4987 6.04688 23.5625 5.75 24.75 5.75C25.9375 5.75 27.0013 6.04688 27.9414 6.64062C28.8815 7.1849 29.6237 7.95182 30.168 8.94141C30.7617 9.88151 31.0586 10.9206 31.0586 12.0586V25.0469Z" fill="#79747E"/>
</svg>
