<svg width="40" height="40" viewBox="0 0 40 40" fill="none" xmlns="http://www.w3.org/2000/svg">
<rect x="5" y="5" width="30" height="30" rx="3" fill="#CAC4D0"/>
<path d="M9.10938 12.8906C9.64062 13.4115 10.2708 13.6719 11 13.6719C11.7292 13.6719 12.3542 13.4115 12.875 12.8906C13.4062 12.3594 13.6719 11.7292 13.6719 11C13.6719 10.2708 13.4062 9.64583 12.875 9.125C12.3542 8.59375 11.7292 8.32812 11 8.32812C10.2708 8.32812 9.64062 8.59375 9.10938 9.125C8.58854 9.64583 8.32812 10.2708 8.32812 11C8.32812 11.7292 8.58854 12.3594 9.10938 12.8906ZM8.64062 8.65625C9.29688 8 10.0833 7.67188 11 7.67188C11.9167 7.67188 12.6979 8 13.3438 8.65625C14 9.30208 14.3281 10.0833 14.3281 11C14.3281 11.9167 14 12.7031 13.3438 13.3594C12.6979 14.0052 11.9167 14.3281 11 14.3281C10.0833 14.3281 9.29688 14.0052 8.64062 13.3594C7.99479 12.7031 7.67188 11.9167 7.67188 11C7.67188 10.0833 7.99479 9.30208 8.64062 8.65625ZM9.8125 9.82812C10.1458 9.49479 10.5417 9.32812 11 9.32812C11.4583 9.32812 11.849 9.49479 12.1719 9.82812C12.5052 10.151 12.6719 10.5417 12.6719 11C12.6719 11.4583 12.5052 11.8542 12.1719 12.1875C11.849 12.5104 11.4583 12.6719 11 12.6719C10.5417 12.6719 10.1458 12.5104 9.8125 12.1875C9.48958 11.8542 9.32812 11.4583 9.32812 11C9.32812 10.5417 9.48958 10.151 9.8125 9.82812Z" fill="#211F26"/>
<path d="M9.10938 21.8906C9.64062 22.4115 10.2708 22.6719 11 22.6719C11.7292 22.6719 12.3542 22.4115 12.875 21.8906C13.4062 21.3594 13.6719 20.7292 13.6719 20C13.6719 19.2708 13.4062 18.6458 12.875 18.125C12.3542 17.5938 11.7292 17.3281 11 17.3281C10.2708 17.3281 9.64062 17.5938 9.10938 18.125C8.58854 18.6458 8.32812 19.2708 8.32812 20C8.32812 20.7292 8.58854 21.3594 9.10938 21.8906ZM8.64062 17.6562C9.29688 17 10.0833 16.6719 11 16.6719C11.9167 16.6719 12.6979 17 13.3438 17.6562C14 18.3021 14.3281 19.0833 14.3281 20C14.3281 20.9167 14 21.7031 13.3438 22.3594C12.6979 23.0052 11.9167 23.3281 11 23.3281C10.0833 23.3281 9.29688 23.0052 8.64062 22.3594C7.99479 21.7031 7.67188 20.9167 7.67188 20C7.67188 19.0833 7.99479 18.3021 8.64062 17.6562ZM9.8125 18.8281C10.1458 18.4948 10.5417 18.3281 11 18.3281C11.4583 18.3281 11.849 18.4948 12.1719 18.8281C12.5052 19.151 12.6719 19.5417 12.6719 20C12.6719 20.4583 12.5052 20.8542 12.1719 21.1875C11.849 21.5104 11.4583 21.6719 11 21.6719C10.5417 21.6719 10.1458 21.5104 9.8125 21.1875C9.48958 20.8542 9.32812 20.4583 9.32812 20C9.32812 19.5417 9.48958 19.151 9.8125 18.8281Z" fill="#211F26"/>
<path d="M9.10938 30.8906C9.64062 31.4115 10.2708 31.6719 11 31.6719C11.7292 31.6719 12.3542 31.4115 12.875 30.8906C13.4062 30.3594 13.6719 29.7292 13.6719 29C13.6719 28.2708 13.4062 27.6458 12.875 27.125C12.3542 26.5938 11.7292 26.3281 11 26.3281C10.2708 26.3281 9.64062 26.5938 9.10938 27.125C8.58854 27.6458 8.32812 28.2708 8.32812 29C8.32812 29.7292 8.58854 30.3594 9.10938 30.8906ZM8.64062 26.6562C9.29688 26 10.0833 25.6719 11 25.6719C11.9167 25.6719 12.6979 26 13.3438 26.6562C14 27.3021 14.3281 28.0833 14.3281 29C14.3281 29.9167 14 30.7031 13.3438 31.3594C12.6979 32.0052 11.9167 32.3281 11 32.3281C10.0833 32.3281 9.29688 32.0052 8.64062 31.3594C7.99479 30.7031 7.67188 29.9167 7.67188 29C7.67188 28.0833 7.99479 27.3021 8.64062 26.6562ZM9.8125 27.8281C10.1458 27.4948 10.5417 27.3281 11 27.3281C11.4583 27.3281 11.849 27.4948 12.1719 27.8281C12.5052 28.151 12.6719 28.5417 12.6719 29C12.6719 29.4583 12.5052 29.8542 12.1719 30.1875C11.849 30.5104 11.4583 30.6719 11 30.6719C10.5417 30.6719 10.1458 30.5104 9.8125 30.1875C9.48958 29.8542 9.32812 29.4583 9.32812 29C9.32812 28.5417 9.48958 28.151 9.8125 27.8281Z" fill="#211F26"/>
<rect x="16" y="10" width="16" height="2" rx="1" fill="#211F26"/>
<rect x="16" y="19" width="16" height="2" rx="1" fill="#211F26"/>
<rect x="16" y="28" width="16" height="2" rx="1" fill="#211F26"/>
</svg>
