<svg width="40" height="40" viewBox="0 0 40 40" fill="none" xmlns="http://www.w3.org/2000/svg">
<path d="M11.4922 28.5078C13.8828 30.8516 16.7188 32.0234 20 32.0234C23.2812 32.0234 26.0938 30.8516 28.4375 28.5078C30.8281 26.1172 32.0234 23.2812 32.0234 20C32.0234 16.7188 30.8281 13.9062 28.4375 11.5625C26.0938 9.17188 23.2812 7.97656 20 7.97656C16.7188 7.97656 13.8828 9.17188 11.4922 11.5625C9.14844 13.9062 7.97656 16.7188 7.97656 20C7.97656 23.2812 9.14844 26.1172 11.4922 28.5078ZM9.38281 9.45312C12.3359 6.5 15.875 5.02344 20 5.02344C24.125 5.02344 27.6406 6.5 30.5469 9.45312C33.5 12.3594 34.9766 15.875 34.9766 20C34.9766 24.125 33.5 27.6641 30.5469 30.6172C27.6406 33.5234 24.125 34.9766 20 34.9766C15.875 34.9766 12.3359 33.5234 9.38281 30.6172C6.47656 27.6641 5.02344 24.125 5.02344 20C5.02344 15.875 6.47656 12.3594 9.38281 9.45312ZM14.6562 14.7266C16.1562 13.2266 17.9375 12.4766 20 12.4766C22.0625 12.4766 23.8203 13.2266 25.2734 14.7266C26.7734 16.1797 27.5234 17.9375 27.5234 20C27.5234 22.0625 26.7734 23.8438 25.2734 25.3438C23.8203 26.7969 22.0625 27.5234 20 27.5234C17.9375 27.5234 16.1562 26.7969 14.6562 25.3438C13.2031 23.8438 12.4766 22.0625 12.4766 20C12.4766 17.9375 13.2031 16.1797 14.6562 14.7266Z" fill="#CAC4D0"/>
</svg>
