<svg width="40" height="40" viewBox="0 0 40 40" fill="none" xmlns="http://www.w3.org/2000/svg">
<path d="M9 12.25H31C32.5188 12.25 33.75 13.4812 33.75 15V25C33.75 26.5188 32.5188 27.75 31 27.75H15.5H9C7.48122 27.75 6.25 26.5188 6.25 25V15C6.25 13.4812 7.48122 12.25 9 12.25Z" stroke="#79747E" stroke-width="2.5"/>
<path d="M9 25.5V24.5H19V25.5H9ZM17.5 23.5V16.5H18.25V23.5H17.5ZM10 23.5L12.625 16.5H13.875L16.5 23.5H15.3L14.675 21.7H11.85L11.2 23.5H10ZM12.2 20.7H14.3L13.275 17.8H13.225L12.2 20.7Z" fill="#79747E"/>
<rect x="9" y="24" width="10" height="2" fill="white"/>
</svg>
