<svg width="40" height="40" viewBox="0 0 40 40" fill="none" xmlns="http://www.w3.org/2000/svg">
<path d="M20 5.02344C22.0625 5.02344 24.0078 5.42188 25.8359 6.21875C27.6641 6.96875 29.2578 8.02344 30.6172 9.38281C31.9766 10.7422 33.0312 12.3359 33.7812 14.1641C34.5781 15.9922 34.9766 17.9375 34.9766 20C34.9766 22.0625 34.5781 24.0078 33.7812 25.8359C33.0312 27.6641 31.9766 29.2578 30.6172 30.6172C29.2578 31.9766 27.6641 33.0547 25.8359 33.8516C24.0078 34.6016 22.0625 34.9766 20 34.9766C17.9375 34.9766 15.9922 34.6016 14.1641 33.8516C12.3359 33.0547 10.7422 31.9766 9.38281 30.6172C8.02344 29.2578 6.94531 27.6641 6.14844 25.8359C5.39844 24.0078 5.02344 22.0625 5.02344 20C5.02344 17.9375 5.39844 15.9922 6.14844 14.1641C6.94531 12.3359 8.02344 10.7422 9.38281 9.38281C10.7422 8.02344 12.3359 6.96875 14.1641 6.21875C15.9922 5.42188 17.9375 5.02344 20 5.02344Z" fill="#79747E"/>
<path d="M24.3667 27L18.6667 21.3L17 26.3333L13 13L26.3333 17L21.3 18.6667L27 24.3667L24.3667 27Z" fill="white"/>
</svg>
